<?xml version="1.0" standalone="no"?>
<!DOCTYPE svg PUBLIC "-//W3C//DTD SVG 20010904//EN"
 "http://www.w3.org/TR/2001/REC-SVG-20010904/DTD/svg10.dtd">
<svg version="1.0" xmlns="http://www.w3.org/2000/svg"
 width="172.000000pt" height="172.000000pt" viewBox="0 0 172.000000 172.000000"
 preserveAspectRatio="xMidYMid meet">
<metadata>
Created by potrace 1.11, written by Peter Selinger 2001-2013
</metadata>
<g transform="translate(0.000000,172.000000) scale(0.100000,-0.100000)"
fill="#000000" stroke="none">
<path d="M887 1091 c-26 -33 -57 -63 -70 -66 -12 -4 -56 -40 -97 -81 l-75 -73
-65 54 c-35 30 -67 55 -70 55 -3 0 -36 -34 -73 -75 -64 -71 -71 -75 -110 -75
-40 0 -46 -4 -117 -82 -119 -129 -122 -140 -14 -40 95 87 104 92 145 92 40 0
48 5 111 67 l68 68 26 -26 c23 -24 25 -29 13 -50 -7 -13 -16 -50 -19 -81 l-6
-58 26 24 c14 13 92 85 174 159 163 148 164 148 193 78 14 -33 14 -35 -20 -70
-35 -36 -84 -121 -70 -121 5 0 22 9 38 20 17 11 37 20 45 20 9 0 69 -27 134
-60 65 -33 127 -60 138 -60 10 0 37 9 58 20 l40 20 182 -91 c101 -50 181 -89
178 -86 -3 3 -84 68 -180 146 l-174 141 -26 -25 -26 -25 -130 141 c-71 77
-140 154 -154 171 l-26 30 -47 -61z"/>
</g>
</svg>
